Coordinates

Units are S.I. units (second, meters, Newtons, ...)
If the header above contains a line with 'inDegrees', this indicates whether rotational values are in degrees (yes) or radians (no).

inDegrees=no
nColumns=21
nRows=20
DataType=double
version=3
OpenSimVersion=4.6-2026-03-31-d6972f9e6
endheader
time	/jointset/ground_pelvis/pelvis_tilt/value	/jointset/ground_pelvis/pelvis_list/value	/jointset/ground_pelvis/pelvis_rotation/value	/jointset/ground_pelvis/pelvis_tx/value	/jointset/ground_pelvis/pelvis_ty/value	/jointset/ground_pelvis/pelvis_tz/value	/jointset/hip_r/hip_flexion_r/value	/jointset/hip_r/hip_adduction_r/value	/jointset/hip_r/hip_rotation_r/value	/jointset/walker_knee_r/knee_angle_r/value	/jointset/patellofemoral_r/knee_angle_r_beta/value	/jointset/ankle_r/ankle_angle_r/value	/jointset/subtalar_r/subtalar_angle_r/value	/jointset/hip_l/hip_flexion_l/value	/jointset/hip_l/hip_adduction_l/value	/jointset/hip_l/hip_rotation_l/value	/jointset/walker_knee_l/knee_angle_l/value	/jointset/patellofemoral_l/knee_angle_l_beta/value	/jointset/ankle_l/ankle_angle_l/value	/jointset/subtalar_l/subtalar_angle_l/value
147.496	-0.05310594307849069	-0.1115268836437984	-0.12164417760898	1.107959645479451	0.9107165998599477	-0.2709626948887411	0.3572610568692882	0.2070898630042396	0.1223289861710836	0.8267104156213859	0.826710415215433	0.3271780153239172	-0.289368092650049	0.2924586828664724	-0.2402387725268067	0.01812209316992101	1.516067734297923	1.516067733456906	-0.2860715013841694	-0.6331615216182199
147.5	-0.05106447989465843	-0.1116553188612918	-0.1223194763020219	1.107075048349791	0.9104966785979183	-0.2713550667578346	0.3417735711789118	0.2051798858748181	0.1240103349576076	0.8276403391860647	0.8276403389178861	0.3390321143123178	-0.2847430776510743	0.3095189111181506	-0.2419010683713038	0.02015372555858395	1.520193030695946	1.520193029854453	-0.2717622473038147	-0.6325764973455221
147.504	-0.0486421554017633	-0.11133952632027	-0.122470270230691	1.106282197319562	0.9106004795664925	-0.2718234568052562	0.3245457492219015	0.202630413353298	0.126316353956227	0.8257904234286155	0.8257904233057214	0.3489192343236385	-0.2810819957515248	0.3257939228896806	-0.242429580459901	0.02245062269810369	1.521856623926052	1.521856623094362	-0.2582510579452275	-0.6314662113753539
147.508	-0.0458008233922375	-0.1105637339376807	-0.1220436674369289	1.105580970760771	0.9110232402196774	-0.2723557829936243	0.3056308376003808	0.1994695997326754	0.1291829471662258	0.8212851952128131	0.8212851952365217	0.3567085207585541	-0.2785192516195798	0.3411873211921217	-0.2418476907674186	0.02493928108295477	1.521048815551656	1.521048814741629	-0.2456030795599905	-0.6299822444029163
147.512	-0.04252569971315986	-0.109310662195206	-0.1209953817524921	1.104969860419404	0.9117549864492211	-0.2729394654387592	0.2851197828325054	0.1957259551019727	0.1325332085893513	0.8142787607879086	0.8142787609539042	0.3622937228273306	-0.2771555452573163	0.3556318246917952	-0.2401829449722302	0.02755005236893163	1.517777937102659	1.517777936326523	-0.233858132822488	-0.6282622949148017
147.516	-0.03882732137787131	-0.1075620815790424	-0.1192910024943728	1.104446216547335	0.9127808278916738	-0.2735619140486008	0.2631398969523785	0.1914276419994858	0.1362786587096071	0.8049501354392524	0.8049501357384368	0.3655931013117245	-0.2770548480656159	0.3690914481633605	-0.2374657768940673	0.03021813078277043	1.51206897448628	1.512068973755127	-0.2230335230788842	-0.6264293212022025
147.52	-0.0347421509830532	-0.1052996603137782	-0.11690687467452	1.1040065337919	0.9140814228058793	-0.2742109991045918	0.2398519649919129	0.1866019519814649	0.1403206456662464	0.7934980312633213	0.7934980316825528	0.366549509493466	-0.2782420928113453	0.3815619293653952	-0.2337284863637584	0.03288440015727769	1.503961605379585	1.50396160470194	-0.2131269898126939	-0.6245909628907204
147.524	-0.03033183456074718	-0.1025060180834276	-0.1138306250791529	1.103646756192052	0.9156335862647137	-0.2748754780570692	0.2154459754120016	0.1812749739130194	0.1445519967918628	0.780135341674881	0.7801353421974557	0.3651303650727529	-0.2807020640731913	0.3930694610291631	-0.2290044802954514	0.03549609337320161	1.493507781767223	1.493507781148099	-0.2041197060562059	-0.6228392618144145
147.528	-0.02568120771990054	-0.09916589512650166	-0.1100613883587152	1.103362576289315	0.9174110059530023	-0.2755453555793213	0.1901357584277769	0.1754714623285878	0.1488589870632337	0.7650836062970922	0.7650836069030289	0.3613271909034101	-0.2843798946178607	0.4036679129745653	-0.2233277784335175	0.03800722908282809	1.480769036716522	1.480769036157273	-0.1959793133635641	-0.6212507357663283
147.532	-0.02089518539801607	-0.09526735984063485	-0.1056097481240277	1.103149710602212	0.9193850303582612	-0.2762121622507945	0.1641528147013718	0.1692148916720418	0.1531236101209174	0.7485676860696104	0.7485676867358317	0.3551546072296789	-0.2891832561715589	0.4134347702101869	-0.21673277743131	0.04037883963986254	1.465813673049569	1.465813672548585	-0.1886629038011713	-0.6198867567058187
147.536	-0.01609471683130184	-0.09080299088011558	-0.1004973928080776	1.103004140760514	0.9215254947445223	-0.2768691441707193	0.1377396166075233	0.1625276677972459	0.1572260730466066	0.7308108165589638	0.7308108172595624	0.3466488318989328	-0.2949860982001246	0.4224660576823092	-0.2092542673018004	0.04257902729587415	1.44871397517135	1.448713974725382	-0.1821197958847935	-0.6187940889356733
147.54	-0.01141201273410527	-0.08577099312481094	-0.09475651015996581	1.102922312387931	0.9238015516775131	-0.2775113600542575	0.1111426530568836	0.1554314854725685	0.1610474323005062	0.7120301676627842	0.7120301683697413	0.3358657719870058	-0.301633712013992	0.430870549462942	-0.200927713426792	0.04458287750484952	1.429543590778111	1.429543590383888	-0.1762939637885475	-0.6180054272921151
147.544	-0.006985249155239244	-0.08017622954735018	-0.08842896571192925	1.102901285290664	0.9261824770243214	-0.2781356863659383	0.08460545555931231	0.14794784407418	0.1644723214524261	0.6924330106956399	0.6924330113802879	0.3228787467058005	-0.3089488824924398	0.4387635510062804	-0.1917898228668781	0.04637225303386884	1.408375224943949	1.408375224599691	-0.1711260258933629	-0.6175398100465168
147.548	-0.002952987535630681	-0.07403114482441246	-0.08156530014398922	1.102938830223817	0.9286384227652936	-0.2787407372054347	0.05836187010097572	0.1400987182070487	0.1673917091096236	0.6722135918917806	0.6722135925269086	0.3077758956701315	-0.3167388306190346	0.4462605784169836	-0.1818793722813533	0.04793551454759599	1.385278779219692	1.385278778926181	-0.1665547242997719	-0.6174027912712026
147.552	0.0005513848166474041	-0.06735653009020888	-0.07422355841173452	1.103033469566036	0.9311410853922019	-0.27932671224087	0.03262990762535752	0.131907334496211	0.1697055718464296	0.6515508165050663	0.6515508170671911	0.2906574082857012	-0.3248025534091848	0.4534713296870728	-0.1712382115281849	0.04926723865026079	1.360320060406142	1.360320060167061	-0.1625178426407326	-0.617586253112801
147.556	0.003404883150257845	-0.06018207251499303	-0.06646796966444324	1.103184462394016	0.9336642627155987	-0.2798951884392735	0.007606489614167076	0.1233989890641394	0.1713253740802212	0.6306068128850488	0.6306068133562188	0.2716327478812451	-0.332938146675162	0.4604943307325537	-0.1599123334674095	0.05036798904148996	1.333560157317391	1.333560157138905	-0.1589525611872301	-0.6180677964531973
147.56	0.005499570469454737	-0.05254666083731844	-0.05836752830902677	1.103391738549427	0.9361842825395557	-0.2804488694204409	-0.01653670131648333	0.1146018701048184	0.1721763291299434	0.6095263766731699	0.6095263770417767	0.2508180037319389	-0.3409497803397735	0.467412537148864	-0.1479529299242949	0.05124414764582726	1.305055538664784	1.30505553855464	-0.1557953263232835	-0.6188097610648317
147.564	0.00674642616080762	-0.04449844997006656	-0.0499945485695986	1.103655789334331	0.9386802960465388	-0.2809913037768478	-0.03965615274879684	0.1055478841559881	0.172199489617342	0.5884372384802924	0.5884372387407678	0.2283334549324921	-0.3486540948362253	0.4742900772904851	-0.1354173921802569	0.05190777168420903	1.274858883651542	1.274858883618075	-0.1529813749579823	-0.619758022606738
147.568	0.00707828940758718	-0.03609469811313662	-0.04142326198211165	1.103977523223063	0.9411344353293576	-0.2815265830867527	-0.06163818048610181	0.09627348462623593	0.1713537229752327	0.567451070878792	0.5674510710305329	0.2043014216666789	-0.3558858279662345	0.4811702553834616	-0.1223702229816714	0.05237642560049346	1.243020620832015	1.243020620883329	-0.1504440821479253	-0.6208407641303989
147.572	0.006451785773234929	-0.02740137053212354	-0.03272850091289486	1.104358094864915	0.9435318409749484	-0.2820590325723193	-0.08239931124959687	0.08682045478540536	0.169617553595584	0.5466651434889063	0.5466651435349089	0.178844523724924	-0.3625024401370793	0.4880748544979913	-0.1088837911767451	0.05267293934605771	1.209591108632036	1.209591108775291	-0.1481142805854013	-0.6219674272203093
